<svg width="14" height="14" viewBox="0 0 14 14" fill="none" xmlns="http://www.w3.org/2000/svg">
<path d="M6.99992 12.3333C4.05992 12.3333 1.66659 9.93992 1.66659 6.99992C1.66659 4.05992 4.05992 1.66659 6.99992 1.66659C9.93992 1.66659 12.3333 4.05992 12.3333 6.99992C12.3333 9.93992 9.93992 12.3333 6.99992 12.3333ZM6.99992 13.6666C10.6799 13.6666 13.6666 10.6799 13.6666 6.99992C13.6666 3.31992 10.6799 0.333252 6.99992 0.333252C3.31992 0.333252 0.333252 3.31992 0.333252 6.99992C0.333252 10.6799 3.31992 13.6666 6.99992 13.6666ZM6.33325 6.99992V9.66659H7.66659V6.99992H9.66659L6.99992 4.33325L4.33325 6.99992H6.33325Z" fill="#493421"/>
</svg>
