<svg width="24" height="24" viewBox="0 0 24 24" fill="none" xmlns="http://www.w3.org/2000/svg">
<path d="M14.8387 0.0659828C14.1771 0.211304 13.6328 0.516009 13.1214 1.03166C12.793 1.35981 12.6757 1.51919 12.4974 1.87078C12.3754 2.10985 12.2581 2.4005 12.2299 2.50831L12.1783 2.71458H6.3977H0.61711L0.410661 2.81771C0.124446 2.96303 -0.0210069 3.22086 0.00245328 3.52556C0.0259135 3.7787 0.129138 3.95215 0.36374 4.10685L0.518578 4.21466H6.3414H12.1642L12.2674 4.55687C12.563 5.52255 13.3982 6.3851 14.3836 6.74606C15.336 7.09296 16.3026 7.02733 17.2222 6.54918C18.0293 6.12728 18.7518 5.21785 18.9677 4.34123L19.0005 4.21466H21.2433H23.4814L23.6363 4.10685C23.8709 3.95215 23.9741 3.7787 23.9975 3.52556C24.021 3.22086 23.8756 2.96303 23.5893 2.81771C23.3829 2.71458 23.3688 2.71458 21.187 2.71458H18.9958L18.9442 2.513C18.8504 2.16142 18.536 1.57545 18.2639 1.2473C17.6023 0.45038 16.5888 -0.0137095 15.5331 0.000353813C15.3079 0.0050416 14.9935 0.0331683 14.8387 0.0659828ZM16.1806 1.58482C16.9032 1.80984 17.4146 2.40518 17.546 3.17867C17.7665 4.45843 16.5982 5.64444 15.3173 5.44286C14.1349 5.26004 13.3607 4.09747 13.6657 2.9724C13.7642 2.61144 14.027 2.18486 14.2803 1.97391C14.4868 1.80046 14.8856 1.5942 15.1108 1.54263C15.397 1.47232 15.8803 1.49575 16.1806 1.58482Z" fill="#493421"/>
<path d="M7.5659 8.62119C6.36474 8.93527 5.4451 9.80251 5.07443 10.9745L4.99467 11.2417L2.72841 11.2557C0.523151 11.2698 0.462155 11.2745 0.33547 11.3682C0.0867914 11.5511 0.0117188 11.7011 0.0117188 11.9964C0.0117188 12.2917 0.0867914 12.4417 0.33547 12.6246C0.462155 12.7183 0.523151 12.723 2.7331 12.7371L5.00405 12.7511L5.07912 13.0136C5.30434 13.7824 5.91431 14.5606 6.6228 14.9919C6.76826 15.0763 7.06855 15.2122 7.29377 15.2919C7.64567 15.4138 7.79581 15.4372 8.28379 15.456C8.99698 15.4841 9.35357 15.4091 9.9823 15.0997C10.7706 14.7153 11.4697 13.909 11.7277 13.0886L11.8357 12.7464L17.6866 12.7371C23.5095 12.723 23.5376 12.723 23.6643 12.6246C23.913 12.4417 23.988 12.2917 23.988 11.9964C23.988 11.7011 23.913 11.5511 23.6643 11.3682C23.5376 11.2698 23.5095 11.2698 17.6866 11.2557L11.8357 11.2463L11.7277 10.8995C11.4697 10.0791 10.7612 9.26342 9.96354 8.87902C9.72893 8.76651 9.40049 8.63994 9.23158 8.60244C8.8046 8.49931 7.9835 8.50869 7.5659 8.62119ZM9.05797 10.1166C10.2122 10.5151 10.733 11.8323 10.1747 12.9246C9.95884 13.3512 9.55533 13.6887 9.05797 13.8715C8.81399 13.9606 8.69669 13.9746 8.33071 13.9559C7.96473 13.9418 7.84273 13.9137 7.57529 13.7918C6.57588 13.323 6.14422 12.1136 6.6228 11.1292C6.85271 10.6697 7.19523 10.3557 7.71605 10.14C8.07264 9.99471 8.66853 9.98533 9.05797 10.1166Z" fill="#493421"/>
<path d="M14.9794 17.0779C13.7032 17.3263 12.6287 18.2592 12.2674 19.4358L12.1642 19.778H6.3414H0.518578L0.36374 19.8812C0.129138 20.0406 0.0259135 20.214 0.00245328 20.4671C-0.0210069 20.7718 0.124446 21.0297 0.410661 21.175L0.61711 21.2781H6.3977H12.1783L12.2299 21.4844C12.2581 21.5922 12.3801 21.8828 12.502 22.1266C12.8633 22.8532 13.5249 23.4439 14.3413 23.7767C15.6457 24.3064 17.3395 23.8658 18.2592 22.7501C18.5595 22.3891 18.8081 21.9297 18.9208 21.55L18.9958 21.2781H21.1917C23.3688 21.2781 23.3829 21.2781 23.5893 21.175C23.8756 21.0297 24.021 20.7718 23.9975 20.4671C23.9741 20.214 23.8709 20.0406 23.6363 19.8859L23.4814 19.778H21.2433H19.0099L18.9255 19.5061C18.7518 18.9483 18.4797 18.517 18.0293 18.067C17.5554 17.5888 17.1096 17.3216 16.5044 17.1576C16.0492 17.031 15.4017 16.9982 14.9794 17.0779ZM16.0352 18.5873C17.0346 18.8124 17.7149 19.8202 17.546 20.814C17.4475 21.3859 17.1472 21.8594 16.6873 22.1641C15.7724 22.7735 14.5149 22.5157 13.9237 21.5969C13.2856 20.6125 13.6516 19.2577 14.6932 18.7467C15.1671 18.5123 15.5237 18.4701 16.0352 18.5873Z" fill="#493421"/>
</svg>
